<mxfile host="app.diagrams.net" modified="2023-08-08T19:57:01.309Z" agent="Mozilla/5.0 (Windows NT 10.0; Win64; x64) AppleWebKit/537.36 (KHTML, like Gecko) Chrome/115.0.0.0 Safari/537.36 Edg/115.0.1901.188" etag="MspcuqfcxMSasAd3WhbJ" version="21.6.7" type="github">
  <diagram name="Page-1" id="d9b1e647-80fa-b4a2-5024-87a742678bcc">
    <mxGraphModel dx="1650" dy="968" grid="1" gridSize="10" guides="1" tooltips="1" connect="1" arrows="1" fold="1" page="1" pageScale="1" pageWidth="1100" pageHeight="850" background="none" math="0" shadow="0">
      <root>
        <mxCell id="0" />
        <mxCell id="1" parent="0" />
        <mxCell id="57fe6abec08f04cb-1" value="&lt;p style=&quot;line-height: 110%;&quot;&gt;Plan&lt;/p&gt;" style="shape=step;whiteSpace=wrap;html=1;fontSize=28;fillColor=#FF99FF;fontColor=#FFFFFF;strokeColor=none;direction=south;" parent="1" vertex="1">
          <mxGeometry x="40" y="160" width="120" height="120" as="geometry" />
        </mxCell>
        <mxCell id="57fe6abec08f04cb-2" value="Code" style="shape=step;whiteSpace=wrap;html=1;fontSize=28;fillColor=#66FFFF;fontColor=#FFFFFF;strokeColor=none;direction=south;" parent="1" vertex="1">
          <mxGeometry x="40" y="270" width="120" height="120" as="geometry" />
        </mxCell>
        <mxCell id="57fe6abec08f04cb-3" value="Build" style="shape=step;whiteSpace=wrap;html=1;fontSize=28;fillColor=#33FF33;fontColor=#FFFFFF;strokeColor=none;direction=south;" parent="1" vertex="1">
          <mxGeometry x="40" y="380" width="120" height="120" as="geometry" />
        </mxCell>
        <mxCell id="57fe6abec08f04cb-4" value="Package" style="shape=step;whiteSpace=wrap;html=1;fontSize=28;fillColor=#00CCCC;fontColor=#FFFFFF;strokeColor=none;direction=south;" parent="1" vertex="1">
          <mxGeometry x="40" y="490" width="120" height="120" as="geometry" />
        </mxCell>
        <mxCell id="57fe6abec08f04cb-5" value="Test" style="shape=step;whiteSpace=wrap;html=1;fontSize=28;fillColor=#E5CCFF;fontColor=#FFFFFF;strokeColor=none;direction=south;" parent="1" vertex="1">
          <mxGeometry x="40" y="600" width="120" height="120" as="geometry" />
        </mxCell>
        <mxCell id="57fe6abec08f04cb-6" value="Release" style="shape=step;whiteSpace=wrap;html=1;fontSize=28;fillColor=#FF75DA;fontColor=#FFFFFF;strokeColor=none;direction=south;" parent="1" vertex="1">
          <mxGeometry x="40" y="710" width="120" height="120" as="geometry" />
        </mxCell>
        <mxCell id="57fe6abec08f04cb-7" value="CI/CD Process Flow Diagram" style="text;html=1;strokeColor=none;fillColor=#61BAFF;align=center;verticalAlign=middle;whiteSpace=wrap;fontSize=54;fontStyle=1;fontColor=#004D99;" parent="1" vertex="1">
          <mxGeometry x="230" y="30" width="730" height="120" as="geometry" />
        </mxCell>
      </root>
    </mxGraphModel>
  </diagram>
</mxfile>
